<svg xmlns="http://www.w3.org/2000/svg" viewBox="0 0 499 279"><defs><style>.cls-1{fill:#7db2ff;}.cls-2{fill:#48b1ff;}</style></defs><g id="Layer_2" data-name="Layer 2"><g id="Layer_1-2" data-name="Layer 1"><ellipse class="cls-1" cx="249.5" cy="197.5" rx="249.5" ry="81.5"/><rect class="cls-1" y="81" width="499" height="116"/><path d="M113.57,230.66l.86-5h6.62l7.85-45.24-6.24-2.22.87-5,6.43,1.11,18.35,3.18q9,1.56,13.39,6.33t3,12.53a10.74,10.74,0,0,1-3.61,6.43,14.56,14.56,0,0,1-7.19,3.36,13.59,13.59,0,0,1,5.48,3.82,14.5,14.5,0,0,1,3,5.72,15.78,15.78,0,0,1,.23,6.76q-1.38,7.89-7.22,11.16t-14.61,1.76Zm15.25-3.61,13,2.26q5.32.93,8.72-1.19t4.23-6.93a14.18,14.18,0,0,0-.08-6,8.07,8.07,0,0,0-2.67-4.29,11.17,11.17,0,0,0-5.39-2.27l-14.21-2.47Zm4.68-26.94,12.58,2.18a9.65,9.65,0,0,0,7.19-1.25,8.79,8.79,0,0,0,3.73-6.16q.81-4.65-1.71-7.47c-1.68-1.88-4.36-3.13-8-3.77l-10.57-1.84Z"/><path d="M187,242A17.95,17.95,0,0,1,171,229.9a26.34,26.34,0,0,1-1.37-11.56l.08-.87A26.28,26.28,0,0,1,173,206.32a18.66,18.66,0,0,1,7.36-7.21,20.08,20.08,0,0,1,20.54,1.78,18.74,18.74,0,0,1,6,8.36,26.18,26.18,0,0,1,1.36,11.57l-.07.88a26.52,26.52,0,0,1-3.35,11.19A17.86,17.86,0,0,1,187,242Zm.54-6.15a9.63,9.63,0,0,0,6.46-1.51,12.61,12.61,0,0,0,4.32-5.29,23.67,23.67,0,0,0,2-8l.08-.88a23.8,23.8,0,0,0-.6-8.23,12.45,12.45,0,0,0-3.36-6,10.81,10.81,0,0,0-12.64-1.1,12.45,12.45,0,0,0-4.32,5.29,24,24,0,0,0-2,8l-.08.88a24.33,24.33,0,0,0,.57,8.23,12.45,12.45,0,0,0,3.36,6A10,10,0,0,0,187.57,235.82Z"/><path d="M212.51,242.94l.18-5,6.56-.89L221,187l-6.49-1.35.19-5.08,14.4.51-2,56.26,6.48,1.35-.17,5Z"/><path d="M239.77,243.83l0-5,6.52-1.16-.16-30.95-6.53-1.08,0-5.09,14.41-.07.2,37.15,6.53,1.09,0,5Zm5.84-54-.05-8.45,8.29,0,.05,8.45Z"/><path d="M285.25,242.93l-17.38-36.77-4.51-.37-.26-5.07,18.15-1,.27,5.08-5.6,1.09,10.9,24.13,1.3,3.42.24,0,1.1-3.54,7.61-25.1-5.84-.5-.27-5.07,18.12-1,.26,5.08-4.52.84-12.65,38.35Z"/><path d="M330.68,240.09q-6.71.85-10.62-2t-4.65-8.8a11.65,11.65,0,0,1,1.35-7.41,14.5,14.5,0,0,1,5.9-5.54,27.64,27.64,0,0,1,10-3l7.66-1-.52-4.21a7.83,7.83,0,0,0-3.13-5.75,9.67,9.67,0,0,0-6.92-1.31,15.37,15.37,0,0,0-4.61,1.25,13.68,13.68,0,0,0-3.38,2.26l-.09,6.1-6,.76-1.24-9.85a20.4,20.4,0,0,1,6.31-4.4,28.44,28.44,0,0,1,8.39-2.29q7.81-1,12.74,2.2t5.79,10.12l2.6,20.7c.07.56.14,1.1.22,1.63s.18,1.05.3,1.57l4.23-.08.63,5-11.24,1.41c-.39-1.13-.71-2.15-.95-3.06s-.46-1.83-.63-2.75a19.11,19.11,0,0,1-5.06,5.54A14.52,14.52,0,0,1,330.68,240.09Zm.33-6.69a14,14,0,0,0,6.88-2.77,11.68,11.68,0,0,0,4.05-5.06l-1-7.79-7.95,1q-5.4.67-7.78,3.6a7.93,7.93,0,0,0-2,6.1,5.41,5.41,0,0,0,2.29,4.09A8.07,8.07,0,0,0,331,233.4Z"/><path d="M363.4,234.7l-1-4.95,6.17-2.4L362.35,197l-6.62.21-1-5,13.3-2.72,1.77,5.28.23.73a15.17,15.17,0,0,1,3.41-6,10.63,10.63,0,0,1,5.68-3.09,16,16,0,0,1,2.54-.29,11.75,11.75,0,0,1,1.91,0l.45,7.39-5.44.78a7.5,7.5,0,0,0-4.85,2.45,10.48,10.48,0,0,0-2.35,4.91l4.92,24,6.62-.21,1,4.95Z"/><ellipse class="cls-2" cx="249.5" cy="81.5" rx="249.5" ry="81.5"/></g></g></svg>