<?xml version="1.0" ?><svg viewBox="0 0 32 32" xmlns="http://www.w3.org/2000/svg"><defs><style>.cls-1{fill:#2893ea;}.cls-2{fill:#d9e1e8;}</style></defs><title/><g data-name="Fog Wind" id="Fog_Wind"><path class="cls-1" d="M23,28H21a1,1,0,0,1,0-2h2a1,1,0,0,1,0,2Z"/><path class="cls-1" d="M18,28H9a1,1,0,0,1,0-2h9a1,1,0,0,1,0,2Z"/><path class="cls-1" d="M27,20H23a1,1,0,0,1,0-2h4a1,1,0,0,1,0,2Z"/><path class="cls-1" d="M20,20H5a1,1,0,0,1,0-2H20a1,1,0,0,1,0,2Z"/><path class="cls-1" d="M13,24H7a1,1,0,0,1,0-2h6a1,1,0,0,1,0,2Z"/><path class="cls-1" d="M25,24H16a1,1,0,0,1,0-2h9a1,1,0,0,1,0,2Z"/><path class="cls-2" d="M23.9,6.52a4.27,4.27,0,0,0-4.25-3,4.79,4.79,0,0,0-1.59.27,7.43,7.43,0,0,0-4.15-1.23,7.12,7.12,0,0,0-7,5,4.35,4.35,0,0,0-3,5.14A4.45,4.45,0,0,0,8.32,16h14.2a5.09,5.09,0,0,0,5.31-4.83A4.91,4.91,0,0,0,23.9,6.52Z"/><path class="cls-1" d="M27,20H23a1,1,0,0,1,0-2h4a1,1,0,0,1,0,2Z"/><path class="cls-1" d="M20,20H5a1,1,0,0,1,0-2H20a1,1,0,0,1,0,2Z"/><path class="cls-1" d="M13,24H7a1,1,0,0,1,0-2h6a1,1,0,0,1,0,2Z"/><path class="cls-1" d="M25,24H16a1,1,0,0,1,0-2h9a1,1,0,0,1,0,2Z"/></g></svg>